<?xml version="1.0" standalone="no"?>
<!DOCTYPE svg PUBLIC "-//W3C//DTD SVG 20010904//EN"
 "http://www.w3.org/TR/2001/REC-SVG-20010904/DTD/svg10.dtd">
<svg version="1.0" xmlns="http://www.w3.org/2000/svg"
 width="260.000000pt" height="260.000000pt" viewBox="0 0 260.000000 260.000000"
 preserveAspectRatio="xMidYMid meet">
<metadata>
Created by potrace 1.11, written by Peter Selinger 2001-2013
</metadata>
<g transform="translate(0.000000,260.000000) scale(0.100000,-0.100000)"
fill="#000000" stroke="none">
<path d="M0 1300 l0 -1300 1300 0 1300 0 0 1300 0 1300 -1300 0 -1300 0 0
-1300z m846 231 c181 -82 176 -388 -8 -465 -26 -11 -70 -16 -143 -16 l-105 0
0 250 0 250 108 0 c82 0 116 -5 148 -19z m482 -2 c48 -24 82 -69 82 -111 0
-27 -2 -28 -54 -28 -50 0 -56 3 -68 27 -18 38 -61 52 -96 32 -33 -18 -39 -50
-15 -71 10 -8 50 -27 88 -42 107 -41 145 -81 145 -154 0 -61 -22 -96 -74 -121
-111 -52 -263 -9 -302 86 -24 57 -20 63 44 63 56 0 59 -1 73 -32 28 -65 139
-63 139 2 0 35 -16 47 -109 80 -37 14 -80 39 -102 60 -35 33 -39 42 -39 87 0
36 6 58 22 78 50 64 180 85 266 44z m362 -149 c30 -94 57 -165 61 -158 3 7 28
84 55 170 l49 158 83 0 82 0 0 -250 0 -250 -66 0 -66 0 7 153 c4 83 9 160 11
170 3 9 3 17 1 17 -3 0 -31 -76 -62 -170 l-57 -170 -42 0 -41 0 -57 168 -57
167 6 -167 6 -168 -62 0 -61 0 0 250 0 250 78 0 79 0 53 -170z"/>
<path d="M710 1300 l0 -160 30 0 c78 0 114 51 114 160 0 109 -36 160 -114 160
l-30 0 0 -160z"/>
</g>
</svg>
